<?xml version="1.0" standalone="no"?><!DOCTYPE svg PUBLIC "-//W3C//DTD SVG 1.1//EN" "http://www.w3.org/Graphics/SVG/1.1/DTD/svg11.dtd"><svg t="1521531556858" class="icon" style="" viewBox="0 0 1024 1024" version="1.1" xmlns="http://www.w3.org/2000/svg" p-id="1682" xmlns:xlink="http://www.w3.org/1999/xlink" width="200" height="200"><defs><style type="text/css"></style></defs><path d="M490.24 941.44l-0.64 0.64-228.821333-228.864v0.042667a322.901333 322.901333 0 0 1-1.109334-1.152l-5.376-5.376 0.170667-0.170667a320 320 0 1 1 471.978667 0.426667l0.170666 0.170666-4.565333 4.522667a323.84 323.84 0 0 1-1.493333 1.578667l-229.290667 229.248-1.024-1.066667z m0.426667-119.04l171.861333-171.861333v-0.042667a234.666667 234.666667 0 1 0-343.68 0l-0.085333 0.042667 171.904 171.904z m0-182.4a149.333333 149.333333 0 1 1 0-298.666667 149.333333 149.333333 0 0 1 0 298.666667z m0-85.333333a64 64 0 1 0 0-128 64 64 0 0 0 0 128z" fill="#444444" p-id="1683"></path></svg>