<?xml version="1.0" standalone="no"?><!DOCTYPE svg PUBLIC "-//W3C//DTD SVG 1.1//EN" "http://www.w3.org/Graphics/SVG/1.1/DTD/svg11.dtd"><svg t="1590385526724" class="icon" viewBox="0 0 1024 1024" version="1.1" xmlns="http://www.w3.org/2000/svg" p-id="978" xmlns:xlink="http://www.w3.org/1999/xlink" width="200" height="200"><defs><style type="text/css"></style></defs><path d="M513.536 875.861c-5.12 0-9.728-1.536-13.824-4.608-6.144-4.608-118.784-102.4-118.784-102.4-4.608-4.608-7.168-10.752-7.168-16.896V464.213L165.376 224.085c-8.192-10.24-6.656-25.6 4.096-33.792 4.096-3.072 9.728-5.12 14.848-5.12h550.912c6.656 0 12.288 2.56 16.896 7.168 4.608 4.608 7.168 10.752 7.168 16.896 0 5.632-2.048 11.264-5.632 15.872L537.6 464.725v387.072c0 13.312-10.752 24.064-24.064 24.064z" fill="#0074DA" p-id="979"></path><path d="M660.992 827.221c-6.144 0-12.288-2.56-16.896-7.168-4.608-4.608-7.168-10.752-7.168-16.896 0-13.312 10.752-24.064 24.064-24.064H847.36c13.312 0 24.064 10.752 24.064 24.064s-10.752 24.064-24.064 24.064H660.992z m0-150.528c-13.312 0-24.064-10.752-24.064-24.064s10.752-24.064 24.064-24.064H847.36c13.312 0 24.064 10.752 24.064 24.064s-10.752 24.064-24.064 24.064H660.992z m0-148.992c-13.312 0-24.064-11.264-23.552-24.576 0-13.312 10.752-23.552 23.552-23.552h185.856c13.312 0 24.064 10.752 24.064 24.064s-10.752 24.064-24.064 24.064H660.992z" fill="#0074DA" p-id="980"></path></svg>