<?xml version="1.0" encoding="UTF-8"?>
<svg width="6px" height="12px" viewBox="0 0 6 12" version="1.1" xmlns="http://www.w3.org/2000/svg" xmlns:xlink="http://www.w3.org/1999/xlink">
    <!-- Generator: Sketch 44.1 (41455) - http://www.bohemiancoding.com/sketch -->
    <title>btn_fh</title>
    <desc>Created with Sketch.</desc>
    <defs></defs>
    <g id="Symbols" stroke="none" stroke-width="1" fill="none" fill-rule="evenodd">
        <g id="btn_fh" fill="#D2D9DC">
            <g id="返回-2">
                <path d="M5.82809071,0.189908081 C5.71842789,0.0683684719 5.56902209,2.13162821e-14 5.41307857,2.13162821e-14 C5.25720631,2.13162821e-14 5.10774707,0.0683684719 4.99806644,0.189908081 L0.173205261,5.55066043 C0.062348906,5.6709108 0,5.83474119 0,6.00574051 C0,6.17666169 0.062348906,6.34055068 0.173205261,6.46074246 L4.99806644,11.8114935 C5.22729665,12.0628355 5.59887831,12.0628355 5.82809071,11.8114935 C6.0573031,11.5601514 6.0573031,11.1526753 5.82809071,10.9013333 L1.4409901,6.00070078 L5.82809071,1.09006692 C6.05299212,0.840717332 6.05299212,0.439277199 5.82809071,0.189908081 Z" transform="translate(3.000000, 6.000000) scale(-1, 1) translate(-3.000000, -6.000000) "></path>
            </g>
        </g>
    </g>
</svg>