<?xml version="1.0" encoding="UTF-8"?>
<svg width="16px" height="16px" viewBox="0 0 16 16" version="1.1" xmlns="http://www.w3.org/2000/svg" xmlns:xlink="http://www.w3.org/1999/xlink">
    <!-- Generator: Sketch 49 (51002) - http://www.bohemiancoding.com/sketch -->
    <title>icon_gggl</title>
    <desc>Created with Sketch.</desc>
    <defs>
        <rect id="path-1" x="0" y="0" width="16" height="16"></rect>
    </defs>
    <g id="icon_gggl" stroke="none" stroke-width="1" fill="none" fill-rule="evenodd">
        <mask id="mask-2" fill="white">
            <use xlink:href="#path-1"></use>
        </mask>
        <g id="Mask"></g>
        <path d="M4.06191797,5.67824788 L0.949033656,5.67824788 C0.917578761,5.67824788 0.888888889,5.70587906 0.888888889,5.74069182 L0.888888889,10.7036894 C0.888888889,10.7384811 0.917999045,10.7662176 0.949033656,10.7662176 L4.0626037,10.7662176 L7.7244445,13.5555556 L7.7244445,2.88888889 L4.06191797,5.67824788 Z M1.28487758,11.6811542 C0.575426808,11.6811542 0,11.1303582 0,10.4544673 L0,5.991489 C0,5.31521933 0.575426808,4.76480207 1.28487758,4.76480207 L3.65592678,4.76480207 L6.73776101,2.41993211 C7.78792738,1.62040473 8.61539093,1.99417408 8.61539093,3.27235728 L8.61539093,13.1731634 C8.61539093,14.4493391 7.78645372,14.8236198 6.73813939,14.0258727 L3.6710219,11.692783 L1.28487758,11.6811542 Z M13.0479796,13.497785 C12.7659119,13.6717246 12.3893305,13.5981828 12.2020952,13.3326522 C12.0148401,13.0671406 12.0862531,12.7078031 12.3624859,12.5256627 C13.8696879,11.5644875 14.7726868,9.9510198 14.7692615,8.22516566 C14.7692615,6.47347816 13.8523424,4.87251052 12.3569696,3.92057768 C12.1687187,3.80650558 12.0602051,3.60445991 12.0732689,3.3926415 C12.0863328,3.18076627 12.2190424,2.99218652 12.4199788,2.89985688 C12.6209151,2.80760299 12.8586334,2.82595528 13.0412884,2.94786829 C14.893169,4.12595669 16.0034768,6.10631867 15.9999918,8.22516566 C15.9999122,10.3681225 14.8775361,12.3307951 13.0479796,13.497785 Z M11.350814,11.5900935 C11.1652118,11.702177 10.9308391,11.7115709 10.7359567,11.6147148 C10.5410942,11.5178776 10.4153148,11.3296008 10.4060546,11.1206802 C10.3967944,10.9117405 10.5054674,10.7139941 10.6910896,10.6019107 C11.5526067,10.0815881 12.0836045,9.18529927 12.0836045,8.20238155 C12.0836045,7.2419449 11.5759464,6.36289092 10.7457745,5.83701914 C10.4628505,5.6579091 10.3861402,5.29465113 10.5743911,5.02550311 C10.7627217,4.75643085 11.14468,4.68349517 11.427604,4.86252945 C12.5967988,5.60315525 13.3144145,6.84569447 13.3144145,8.20266564 C13.3144941,9.59056486 12.5636612,10.8572897 11.350814,11.5900935 Z" id="系统消息" fill="#D4D7D8" mask="url(#mask-2)"></path>
    </g>
</svg>