<?xml version="1.0" encoding="UTF-8"?>
<svg width="14px" height="14px" viewBox="0 0 14 14" version="1.1" xmlns="http://www.w3.org/2000/svg" xmlns:xlink="http://www.w3.org/1999/xlink">
    <!-- Generator: Sketch 44.1 (41455) - http://www.bohemiancoding.com/sketch -->
    <title>btn_dates</title>
    <desc>Created with Sketch.</desc>
    <defs></defs>
    <g id="Symbols" stroke="none" stroke-width="1" fill="none" fill-rule="evenodd">
        <g id="btn_dates" fill="#4FD3D1">
            <g>
                <path d="M12.125,0.874775453 L10.26,0.874775453 L10.26,0.437338912 C10.26,0.201506276 10.045,0 9.79329167,0 C9.53166667,0 9.32666667,0.201506276 9.32666667,0.437338912 L9.32666667,0.874775453 L4.66333333,0.874775453 L4.66333333,0.437338912 C4.66333333,0.201506276 4.44833333,0 4.1966875,0 C3.93497917,0 3.72997917,0.201506276 3.72997917,0.437338912 L3.72997917,0.874775453 L1.865,0.874775453 C0.83,0.874775453 0,1.66205579 0,2.62270572 L0,12.2371911 C0,13.2072134 0.83,13.9851213 1.865,13.9851213 L12.123375,13.9851213 C13.1499792,13.9851213 13.9883542,13.2072134 13.9883542,12.2371911 L13.9883542,2.62270572 C13.99,1.66205579 13.1499792,0.874775453 12.125,0.874775453 Z M13.0566458,12.2387922 C13.0566458,12.7199079 12.6366458,13.1135676 12.123375,13.1135676 L1.865,13.1135676 C1.34333333,13.1135676 0.931645833,12.7199079 0.931645833,12.2387922 L0.931645833,4.61900418 L13.0566458,4.61900418 L13.0566458,3.74430683 L0.933354167,3.74430683 L0.933354167,2.62270572 C0.933354167,2.14158996 1.34333333,1.74794979 1.86670833,1.74794979 L3.7316875,1.74794979 L3.7316875,2.18536681 C3.7316875,2.43057183 3.9366875,2.62270572 4.19833333,2.62270572 C4.45004167,2.62270572 4.66504167,2.43057183 4.66504167,2.18536681 L4.66504167,1.74794979 L9.328375,1.74794979 L9.328375,2.18536681 C9.328375,2.43057183 9.533375,2.62270572 9.795,2.62270572 C10.046625,2.62270572 10.2616458,2.43057183 10.2616458,2.18536681 L10.2616458,1.74794979 L12.126625,1.74794979 C12.6399792,1.74794979 13.0599792,2.14158996 13.0599792,2.62270572 L13.0599792,12.2387922 L13.0566458,12.2387922 Z" id="Fill-1"></path>
                <path d="M2.70000005,7.84963468 L4.27837505,7.84963468 L4.27837505,6.4000001 L2.70000005,6.4000001 L2.70000005,7.84963468 Z M6.17672921,7.84963468 L7.75502088,7.84963468 L7.75502088,6.4000001 L6.17672921,6.4000001 L6.17672921,7.84963468 Z M9.65337505,7.84963468 L11.2316667,7.84963468 L11.2316667,6.4000001 L9.65337505,6.4000001 L9.65337505,7.84963468 Z M2.70000005,10.925339 L4.27837505,10.925339 L4.27837505,9.47570442 L2.70000005,9.47570442 L2.70000005,10.925339 Z M6.17672921,10.925339 L7.75502088,10.925339 L7.75502088,9.47570442 L6.17672921,9.47570442 L6.17672921,10.925339 Z M9.65337505,10.925339 L11.2316667,10.925339 L11.2316667,9.47570442 L9.65337505,9.47570442 L9.65337505,10.925339 Z" id="Fill-2"></path>
            </g>
        </g>
    </g>
</svg>