<?xml version="1.0" encoding="UTF-8"?>
<svg width="18px" height="18px" viewBox="0 0 18 18" version="1.1" xmlns="http://www.w3.org/2000/svg" xmlns:xlink="http://www.w3.org/1999/xlink">
    <!-- Generator: Sketch 44.1 (41455) - http://www.bohemiancoding.com/sketch -->
    <title>icon_xtxx</title>
    <desc>Created with Sketch.</desc>
    <defs>
        <polygon id="path-1" points="0.00150627615 0.00501392758 0.00150627615 17.9749554 17.9950042 17.9749554 17.9950042 0.00501392758"></polygon>
    </defs>
    <g id="Symbols" stroke="none" stroke-width="1" fill="none" fill-rule="evenodd">
        <g id="icon_xtxx">
            <rect id="Rectangle-16" x="0" y="0" width="18" height="18"></rect>
            <g id="系统">
                <mask id="mask-2" fill="white">
                    <use xlink:href="#path-1"></use>
                </mask>
                <g id="Clip-2"></g>
                <path d="M0,8.25338912 C0.024125523,8.0525523 0.102376569,7.85369874 0.238995816,7.68306276 C0.375589958,7.51232636 0.550343096,7.39179916 0.743146444,7.32552301 L2.4763431,6.70897908 C2.56066946,6.4740251 2.65511297,6.24100418 2.76552301,6.01408368 L1.97620921,4.3511046 C1.88989958,4.16841841 1.84970711,3.95952301 1.87383264,3.74457741 C1.89795816,3.52970711 1.98022594,3.33288703 2.10476987,3.17422594 L3.16719665,2.11179916 C3.327841,1.98725523 3.52267782,1.90292887 3.73754812,1.88086192 C3.95249372,1.85879498 4.16138912,1.89692887 4.34407531,1.98323849 L6.00705439,2.7725523 C6.23593305,2.66410042 6.46699582,2.56769874 6.70390795,2.48337238 L7.3205523,0.750175732 C7.38878661,0.559330544 7.50931381,0.382619247 7.67799163,0.246025105 C7.84872803,0.109405858 8.04552301,0.0311548117 8.2483431,0.0070292887 L9.74254393,0.0070292887 C9.94338075,0.0311548117 10.1422594,0.109405858 10.3129958,0.246025105 C10.4837322,0.382619247 10.6041339,0.557372385 10.6704351,0.750175732 L11.2870795,2.48337238 C11.5220335,2.56769874 11.7549289,2.66214226 11.9839079,2.7725523 L13.6469121,1.98323849 C13.8295983,1.89692887 14.0384686,1.8567364 14.2534393,1.88086192 C14.4702427,1.90498745 14.6651046,1.98725523 14.8237657,2.11179916 L15.8862176,3.17422594 C16.0107615,3.33487029 16.0950879,3.52970711 16.1171548,3.74457741 C16.1392218,3.95952301 16.1010628,4.16841841 16.0147782,4.3511046 L15.2254393,6.01408368 C15.3339163,6.24100418 15.430318,6.4740251 15.5146444,6.70897908 L17.247841,7.32552301 C17.4386862,7.39375732 17.6153975,7.51428452 17.7519916,7.68306276 C17.8885105,7.85171548 17.9668619,8.05049372 17.9909874,8.25338912 L17.9909874,9.74957322 C17.9668619,9.95041004 17.8885105,10.1492887 17.7519916,10.3200251 C17.6153975,10.4907615 17.4406444,10.6111632 17.247841,10.6774644 L15.5146444,11.2941088 C15.430318,11.5290628 15.3358745,11.7619582 15.2254393,11.9909372 L16.0147782,13.6539414 C16.1010628,13.8366276 16.1412803,14.0454979 16.1171548,14.2604686 C16.0930293,14.477272 16.0107615,14.6721339 15.8862176,14.830795 L14.8237657,15.8932469 C14.663046,16.0177908 14.4682845,16.1021172 14.2534393,16.1241841 C14.0365105,16.1483096 13.8295983,16.1080921 13.6469121,16.0218075 L11.9839079,15.2324686 C11.7549289,15.3409456 11.5239916,15.4373473 11.2870795,15.5216736 L10.6724937,17.2569289 C10.6041339,17.4476736 10.4837322,17.6244854 10.314954,17.7609791 C10.1442176,17.8975983 9.94739749,17.9759498 9.74460251,17.9999749 L8.25040167,17.9999749 C8.04956485,17.9759498 7.85068619,17.8975983 7.68005021,17.7609791 C7.50931381,17.6244854 7.38878661,17.4497322 7.32251046,17.2569289 L6.70596653,15.5236318 C6.47101255,15.4393054 6.23799163,15.3449623 6.00901255,15.2344519 L4.34613389,16.0237657 C4.16334728,16.1101506 3.95447699,16.1502678 3.73960669,16.1261423 C3.52463598,16.1021172 3.327841,16.019749 3.16915481,15.895205 L2.10682845,14.8327782 C1.98228452,14.6721339 1.89795816,14.477272 1.87579079,14.2624268 C1.85176569,14.0454979 1.89185774,13.8386862 1.97826778,13.6558996 L2.76748117,11.9929958 C2.65912971,11.7640167 2.56262762,11.5330795 2.47830126,11.2960669 L0.743146444,10.6774644 C0.552301255,10.609205 0.375589958,10.4887029 0.238995816,10.3200251 C0.102376569,10.1492887 0.024125523,9.95246862 0,9.74957322 L0,8.25338912 Z M1.12666946,8.38599163 C1.09056904,8.79364017 1.09056904,9.21140586 1.12666946,9.61709623 L3.38206695,10.4183849 L3.46639331,10.6895397 C3.57288703,11.0430628 3.71743933,11.3864686 3.89219247,11.7178243 L4.02476987,11.9688703 L2.99851883,14.1298494 C3.26555649,14.4411967 3.55682008,14.7344184 3.87012552,15.0015314 L6.0310795,13.9751799 L6.28212552,14.1077824 C6.61358159,14.2825356 6.95701255,14.4270628 7.31043515,14.5335816 L7.58158996,14.6179079 L8.38297908,16.8733054 C8.58577406,16.8913556 8.79062762,16.9014477 8.99743933,16.9014477 C9.20437657,16.9014477 9.40923013,16.8913556 9.6120251,16.8733054 L10.4134142,14.6179079 L10.684569,14.5335816 C11.0379916,14.4270628 11.3813975,14.2825356 11.7127782,14.1077824 L11.9638243,13.9751799 L14.1248787,15.0015314 C14.4361255,14.7344184 14.7293473,14.4431548 14.9964603,14.1298494 L13.9702092,11.9688703 L14.1028117,11.7178243 C14.2774644,11.3864686 14.4220921,11.0430628 14.5285105,10.6895397 L14.6128368,10.4183849 L16.8683347,9.61709623 C16.90441,9.21140586 16.90441,8.79364017 16.8683347,8.38599163 L14.6128368,7.58460251 L14.5285105,7.3134477 C14.4220921,6.96198326 14.2774644,6.61659414 14.1028117,6.28719665 L13.9702092,6.03615063 L14.9964603,3.87509623 C14.7293473,3.56384937 14.4381841,3.27062762 14.1248787,3.00348954 L11.9638243,4.02974059 L11.7127782,3.8972636 C11.3813975,3.72251046 11.0379916,3.57785774 10.684569,3.47146444 L10.4134142,3.38713808 L9.6120251,1.13174059 C9.40923013,1.11358996 9.20437657,1.10359833 8.99743933,1.10359833 C8.79062762,1.10359833 8.58577406,1.11358996 8.38297908,1.13174059 L7.58158996,3.38713808 L7.31043515,3.47146444 C6.95701255,3.57785774 6.61358159,3.72251046 6.28212552,3.8972636 L6.0310795,4.02974059 L3.87012552,3.00348954 C3.55887866,3.27062762 3.26555649,3.56189121 2.99851883,3.87509623 L4.02476987,6.03615063 L3.89219247,6.28719665 C3.71743933,6.61659414 3.57288703,6.96198326 3.46639331,7.3134477 L3.38206695,7.58460251 L1.12666946,8.38599163 Z" id="Fill-1" fill="#D4D7D8"></path>
                <path d="M8.99743933,6.47196653 C10.3933054,6.47196653 11.5280084,7.60666946 11.5280084,9.00251046 C11.5280084,10.3983766 10.3933054,11.5330795 8.99743933,11.5330795 C7.60169874,11.5330795 6.46699582,10.3983766 6.46699582,9.00251046 C6.46699582,7.60666946 7.60169874,6.47196653 8.99743933,6.47196653 L8.99743933,6.47196653 Z M8.99743933,5.34725523 C6.9790795,5.34725523 5.34228452,6.98415063 5.34228452,9.00251046 C5.34228452,11.0208954 6.9790795,12.6577908 8.99743933,12.6577908 C11.0159247,12.6577908 12.6527197,11.0208954 12.6527197,9.00251046 C12.6527197,6.98415063 11.0159247,5.34725523 8.99743933,5.34725523 Z" id="Fill-4" fill="#D4D7D8"></path>
            </g>
        </g>
    </g>
</svg>