<?xml version="1.0" encoding="UTF-8"?>
<svg width="18px" height="18px" viewBox="0 0 18 18" version="1.1" xmlns="http://www.w3.org/2000/svg" xmlns:xlink="http://www.w3.org/1999/xlink">
    <!-- Generator: Sketch 44.1 (41455) - http://www.bohemiancoding.com/sketch -->
    <title>icon_mjjgl</title>
    <desc>Created with Sketch.</desc>
    <defs></defs>
    <g id="Symbols" stroke="none" stroke-width="1" fill="none" fill-rule="evenodd">
        <g id="icon_mjjgl">
            <rect id="Rectangle-14" x="0" y="0" width="18" height="18"></rect>
            <path d="M3.60000002,0 L14.4,0 C15.2836556,-1.62324903e-16 16,0.716344411 16,1.60000002 L16,16.4 C16,17.2836556 15.2836556,18 14.4,18 L3.60000002,18 C2.71634441,18 2,17.2836556 2,16.4 L2,1.60000002 L2,1.60000002 C2,0.716344411 2.71634441,1.62324903e-16 3.60000002,0 L3.60000002,0 Z M4,1 L4,1 C3.44771525,1 3,1.44771525 3,2 L3,16 C3,16.5522847 3.44771525,17 4,17 L14,17 C14.5522847,17 15,16.5522847 15,16 L15,2 C15,1.44771525 14.5522847,1 14,1 L4,1 Z M5,2 L13,2 C13.5522847,2 14,2.44771525 14,3 L14,6 L14,6 C14,6.55228475 13.5522847,7 13,7 L5,7 C4.44771525,7 4,6.55228475 4,6 L4,3 C4,2.44771525 4.44771525,2 5,2 Z M5.60000002,2.83333333 C5.26862916,2.83333333 5,3.10196249 5,3.43333336 L5,5.56666664 C5,5.89803751 5.26862916,6.16666667 5.60000002,6.16666667 L12.4,6.16666667 C12.7313708,6.16666667 13,5.89803751 13,5.56666664 L13,3.43333336 C13,3.10196249 12.7313708,2.83333333 12.4,2.83333333 L5.60000002,2.83333333 Z M4.99999982,8 C5.44182763,8 5.79999983,8.35817221 5.79999983,8.80000001 C5.79999983,9.24182782 5.44182763,9.60000002 4.99999982,9.60000002 C4.55817201,9.60000002 4.19999981,9.24182782 4.19999981,8.80000001 C4.19999981,8.35817221 4.55817201,8 4.99999982,8 Z M4.99999982,11 C5.44182763,11 5.79999983,11.3581722 5.79999983,11.8 C5.79999983,12.2418278 5.44182763,12.6 4.99999982,12.6 C4.55817201,12.6 4.19999981,12.2418278 4.19999981,11.8 C4.19999981,11.3581722 4.55817201,11 4.99999982,11 Z M4.99999982,14 C5.44182763,14 5.79999983,14.3581722 5.79999983,14.8 C5.79999983,15.2418278 5.44182763,15.6 4.99999982,15.6 C4.55817201,15.6 4.19999981,15.2418278 4.19999981,14.8 C4.19999981,14.3581722 4.55817201,14 4.99999982,14 Z M8.99999982,8 C9.44182763,8 9.79999983,8.35817221 9.79999983,8.80000001 C9.79999983,9.24182782 9.44182763,9.60000002 8.99999982,9.60000002 C8.55817201,9.60000002 8.19999981,9.24182782 8.19999981,8.80000001 C8.19999981,8.35817221 8.55817201,8 8.99999982,8 Z M8.99999982,11 C9.44182763,11 9.79999983,11.3581722 9.79999983,11.8 C9.79999983,12.2418278 9.44182763,12.6 8.99999982,12.6 C8.55817201,12.6 8.19999981,12.2418278 8.19999981,11.8 C8.19999981,11.3581722 8.55817201,11 8.99999982,11 Z M8.99999982,14 C9.44182763,14 9.79999983,14.3581722 9.79999983,14.8 C9.79999983,15.2418278 9.44182763,15.6 8.99999982,15.6 C8.55817201,15.6 8.19999981,15.2418278 8.19999981,14.8 C8.19999981,14.3581722 8.55817201,14 8.99999982,14 Z M12.9999998,8 C13.4418276,8 13.7999998,8.35817221 13.7999998,8.80000001 C13.7999998,9.24182782 13.4418276,9.60000002 12.9999998,9.60000002 C12.558172,9.60000002 12.1999998,9.24182782 12.1999998,8.80000001 C12.1999998,8.35817221 12.558172,8 12.9999998,8 Z M12.9999998,11 C13.4418276,11 13.7999998,11.3581722 13.7999998,11.8 C13.7999998,12.2418278 13.4418276,12.6 12.9999998,12.6 C12.558172,12.6 12.1999998,12.2418278 12.1999998,11.8 C12.1999998,11.3581722 12.558172,11 12.9999998,11 Z M12.9999998,14 C13.4418276,14 13.7999998,14.3581722 13.7999998,14.8 C13.7999998,15.2418278 13.4418276,15.6 12.9999998,15.6 C12.558172,15.6 12.1999998,15.2418278 12.1999998,14.8 C12.1999998,14.3581722 12.558172,14 12.9999998,14 Z" id="Combined-Shape" fill="#D4D7D8"></path>
        </g>
    </g>
</svg>