<?xml version="1.0" encoding="UTF-8"?>
<svg width="10px" height="10px" viewBox="0 0 10 10" version="1.1" xmlns="http://www.w3.org/2000/svg" xmlns:xlink="http://www.w3.org/1999/xlink">
    <!-- Generator: Sketch 44.1 (41455) - http://www.bohemiancoding.com/sketch -->
    <title>btn_renyuan_xl</title>
    <desc>Created with Sketch.</desc>
    <defs>
        <polygon id="path-1" points="0 0.033024911 0 9.9644573 9.97287197 9.9644573 9.97287197 0.033024911"></polygon>
    </defs>
    <g id="Symbols" stroke="none" stroke-width="1" fill="none" fill-rule="evenodd">
        <g id="btn_renyuan_xl">
            <g transform="translate(5.000000, 5.000000) scale(1, -1) translate(-5.000000, -5.000000) ">
                <mask id="mask-2" fill="white">
                    <use xlink:href="#path-1"></use>
                </mask>
                <g id="Clip-2"></g>
                <path d="M4.23847751,5.26007117 C4.62207612,5.69405694 5.31249135,5.69405694 5.69608997,5.26007117 L9.80024221,1.03893238 C10.0304152,0.802348754 10.0304152,0.447295374 9.80024221,0.210569395 C9.68519031,0.0922775801 9.53179931,0.0528113879 9.3783737,0.0528113879 C9.2249827,0.0528113879 9.07155709,0.0922775801 8.95640138,0.210569395 L4.96730104,4.35274021 L0.978062284,0.210569395 C0.74799308,-0.0261565836 0.402802768,-0.0261565836 0.172595156,0.210569395 C-0.0575778547,0.447295374 -0.0575778547,0.802348754 0.172595156,1.03893238 L4.23847751,5.26007117 Z" id="Fill-1" fill="#35A9F4"></path>
                <path d="M9.3783737,4.4316726 C9.2249827,4.4316726 9.07155709,4.47117438 8.95640138,4.58946619 L4.96730104,8.73163701 L0.978062284,4.58946619 C0.74799308,4.35274021 0.402802768,4.35274021 0.172595156,4.58946619 C-0.0575778547,4.82619217 -0.0575778547,5.18124555 0.172595156,5.41782918 L4.23847751,9.63896797 C4.62207612,10.0729537 5.31249135,10.0729537 5.69608997,9.63896797 L9.80024221,5.41782918 C10.0304152,5.18124555 10.0304152,4.82619217 9.80024221,4.58946619 C9.68519031,4.47117438 9.53179931,4.4316726 9.3783737,4.4316726 Z" id="Fill-3" fill="#35A9F4"></path>
            </g>
        </g>
    </g>
</svg>