<?xml version="1.0" encoding="UTF-8"?>
<svg width="16px" height="16px" viewBox="0 0 16 16" version="1.1" xmlns="http://www.w3.org/2000/svg" xmlns:xlink="http://www.w3.org/1999/xlink">
    <!-- Generator: Sketch 49 (51002) - http://www.bohemiancoding.com/sketch -->
    <title>icon_crjl</title>
    <desc>Created with Sketch.</desc>
    <defs></defs>
    <g id="icon_crjl" stroke="none" stroke-width="1" fill="none" fill-rule="evenodd">
        <g id="出入库记录" transform="translate(1.000000, 0.000000)" fill="#D4D7D8">
            <path d="M2.26376972,4.77980513 L8.01754059,4.77980513 L8.01754059,3.67106574 L2.26376972,3.67106574 L2.26376972,4.77980513 Z M2.26376972,7.10796919 L5.84803915,7.10796919 L5.84803915,5.99925281 L2.26376972,5.99925281 L2.26376972,7.10796919 Z M2.26376972,9.54695657 L5.84803915,9.54695657 L5.84803915,8.43830921 L2.26376972,8.43830921 L2.26376972,9.54695657 Z M2.26376972,11.986013 L5.84803915,11.986013 L5.84803915,10.8773886 L2.26376972,10.8773886 L2.26376972,11.986013 Z M7.82882786,9.54695657 L13.2995982,9.54695657 L13.2995982,10.5447806 L7.73455959,10.5447806 L8.8664053,11.8751206 L8.20615544,12.651252 L6.0367323,10.1012802 L8.20615544,7.55140052 L8.8664053,8.32741686 L7.82882786,9.54695657 Z M13.2995982,5.44492913 L7.82882786,5.44492913 L7.82882786,6.44275316 L13.3939447,6.44275316 L12.2620207,7.77309318 L12.9223489,8.54922456 L15.091772,5.99925281 L12.9223489,3.44937308 L12.2620207,4.22548145 L13.2995982,5.44492913 Z" id="Fill-1"></path>
            <path d="M11.5074439,2.11901005 C11.5074439,1.0103857 10.7529257,0.0125616639 9.7153483,0.0125616639 L1.79217386,0.0125616639 C0.848943005,0.0125616639 0,0.899493356 0,2.11901005 L0,13.5380687 C0,14.646808 0.754596431,15.6445401 1.79217386,15.6445401 L9.7153483,15.6445401 C10.6585596,15.6445401 11.5074439,14.7576084 11.5074439,13.5380687 L11.5074439,11.986013 L10.564213,11.986013 L10.564213,13.5380687 C10.564213,14.0924844 10.1869637,14.5359157 9.7153483,14.5359157 L1.79217386,14.5359157 C1.32055843,14.5359157 0.943230858,14.0924844 0.943230858,13.5380687 L0.943230858,2.11901005 C0.943230858,1.56470938 1.32055843,1.12118602 1.79217386,1.12118602 L9.7153483,1.12118602 C10.1869637,1.12118602 10.564213,1.56470938 10.564213,2.11901005 L10.564213,3.89287344 L11.5074439,3.89287344 L11.5074439,2.11901005 Z" id="Fill-3"></path>
        </g>
    </g>
</svg>