<?xml version="1.0" encoding="UTF-8"?>
<svg width="18px" height="18px" viewBox="0 0 18 18" version="1.1" xmlns="http://www.w3.org/2000/svg" xmlns:xlink="http://www.w3.org/1999/xlink">
    <!-- Generator: Sketch 44.1 (41455) - http://www.bohemiancoding.com/sketch -->
    <title>icon_sq</title>
    <desc>Created with Sketch.</desc>
    <defs>
        <rect id="path-1" x="0" y="0" width="18" height="18"></rect>
    </defs>
    <g id="Symbols" stroke="none" stroke-width="1" fill="none" fill-rule="evenodd">
        <g id="icon_sq">
            <g>
                <mask id="mask-2" fill="white">
                    <use xlink:href="#path-1"></use>
                </mask>
                <g id="Mask"></g>
                <g id="Group" mask="url(#mask-2)">
                    <path d="M13,7 L13,1.60000002 C13,0.716344411 12.2836556,5.97197022e-17 11.4,2.22044605e-16 L11.4,0 L3.60000002,0 L3.60000002,2.22044605e-16 C2.71634441,3.84369508e-16 2,0.716344411 2,1.60000002 L2,1.60000002 L2,18 L9,18 L9,18 L3,18 L3,2 C3,1.44771525 3.44771525,1 4,1 L4,1 L11,1 C11.5522847,1 12,1.44771525 12,2 L12,7 L13,7 Z" id="Combined-Shape" fill="#D8D8D8"></path>
                    <path d="M10.6,7 L15.4,7 C16.2836556,7 17,7.71634441 17,8.60000002 L17,18 L9,18 L9,8.60000002 L9,8.60000002 C9,7.71634441 9.71634441,7 10.6,7 L10.6,7 Z M11,8 L11,8 C10.4477153,8 10,8.44771525 10,9 L10,18 L16,18 L16,9 C16,8.44771525 15.5522847,8 15,8 L11,8 Z" id="Combined-Shape-Copy" fill="#D8D8D8"></path>
                    <path d="M5.5,3 L6.71621684,3 L6.71621684,3 C6.99235921,3 7.21621684,3.22385763 7.21621684,3.5 L7.21621684,4.73954471 L7.21621684,4.73954471 C7.21621684,5.01568708 6.99235921,5.23954471 6.71621684,5.23954471 L5.5,5.23954471 C5.22385763,5.23954471 5,5.01568708 5,4.73954471 L5,3.5 L5,3.5 C5,3.22385763 5.22385763,3 5.5,3 L5.5,3 Z M8.93243367,3 L10.1486505,3 L10.1486505,3 C10.4247929,3 10.6486505,3.22385763 10.6486505,3.5 L10.6486505,4.73954471 C10.6486505,5.01568708 10.4247929,5.23954471 10.1486505,5.23954471 L8.93243367,5.23954471 C8.6562913,5.23954471 8.43243367,5.01568708 8.43243367,4.73954471 L8.43243367,3.5 C8.43243367,3.22385763 8.6562913,3 8.93243367,3 L8.93243367,3 Z M5.5,6.35931706 L6.71621684,6.35931706 C6.99235921,6.35931706 7.21621684,6.58317468 7.21621684,6.85931706 L7.21621684,8.09886177 L7.21621684,8.09886177 C7.21621684,8.37500414 6.99235921,8.59886177 6.71621684,8.59886177 L5.5,8.59886177 C5.22385763,8.59886177 5,8.37500414 5,8.09886177 L5,6.85931706 L5,6.85931706 C5,6.58317468 5.22385763,6.35931706 5.5,6.35931706 L5.5,6.35931706 Z M5.5,9.71863412 L6.71621684,9.71863412 C6.99235921,9.71863412 7.21621684,9.94249174 7.21621684,10.2186341 L7.21621684,11.4581788 L7.21621684,11.4581788 C7.21621684,11.7343212 6.99235921,11.9581788 6.71621684,11.9581788 L5.5,11.9581788 C5.22385763,11.9581788 5,11.7343212 5,11.4581788 L5,10.2186341 L5,10.2186341 C5,9.94249174 5.22385763,9.71863412 5.5,9.71863412 L5.5,9.71863412 Z" id="Combined-Shape" fill="#D8D8D8"></path>
                    <path d="M12.5,9 L13.5,9 C13.7761424,9 14,9.22385763 14,9.5 L14,10.3171925 C14,10.5933348 13.7761424,10.8171925 13.5,10.8171925 L12.5,10.8171925 C12.2238576,10.8171925 12,10.5933348 12,10.3171925 L12,9.5 L12,9.5 C12,9.22385763 12.2238576,9 12.5,9 L12.5,9 Z M12.5,11.7257887 L13.5,11.7257887 C13.7761424,11.7257887 14,11.9496463 14,12.2257887 L14,13.0429812 C14,13.3191235 13.7761424,13.5429812 13.5,13.5429812 L12.5,13.5429812 C12.2238576,13.5429812 12,13.3191235 12,13.0429812 L12,12.2257887 C12,11.9496463 12.2238576,11.7257887 12.5,11.7257887 L12.5,11.7257887 Z M12.5,14.4515774 L13.5,14.4515774 C13.7761424,14.4515774 14,14.675435 14,14.9515774 L14,15.7687699 C14,16.0449122 13.7761424,16.2687699 13.5,16.2687699 L12.5,16.2687699 C12.2238576,16.2687699 12,16.0449122 12,15.7687699 L12,14.9515774 C12,14.675435 12.2238576,14.4515774 12.5,14.4515774 L12.5,14.4515774 Z" id="Combined-Shape-Copy-2" fill="#D8D8D8"></path>
                    <path d="M0.5,17.5 L17.5,17.5" id="Line" stroke="#D4D7D8" stroke-linecap="round"></path>
                </g>
            </g>
        </g>
    </g>
</svg>