<?xml version="1.0" standalone="no"?><!DOCTYPE svg PUBLIC "-//W3C//DTD SVG 1.1//EN" "http://www.w3.org/Graphics/SVG/1.1/DTD/svg11.dtd"><svg t="1522049283194" class="icon" style="" viewBox="0 0 1024 1024" version="1.1" xmlns="http://www.w3.org/2000/svg" p-id="7498" xmlns:xlink="http://www.w3.org/1999/xlink" width="200" height="200"><defs><style type="text/css"></style></defs><path d="M514.048 22.628352C243.775488 22.628352 24.676352 241.727488 24.676352 512S243.775488 1001.371648 514.048 1001.371648 1003.419648 782.272512 1003.419648 512 784.320512 22.628352 514.048 22.628352z m129.302528 678.637568H367.345664v-24.664064c60.485632-132.716544 233.723904-161.492992 233.723904-278.35392 0-40.51968-26.425344-83.388416-92.78464-83.388416-42.28096 0-88.086528 25.839616-102.76864 85.737472l-36.409344-5.871616c14.094336-69.29408 68.120576-114.511872 139.177984-114.511872 86.913024 0 130.955264 48.154624 130.955264 116.860928 0 128.018432-140.939264 150.921216-220.217344 269.545472h224.32768v34.646016z" fill="#2E333A" p-id="7499"></path><path d="M639.240192 397.074432c0-68.708352-44.044288-116.860928-130.955264-116.860928-71.057408 0-125.083648 45.217792-139.177984 114.511872l36.409344 5.871616c14.682112-59.899904 60.485632-85.737472 102.76864-85.737472 66.359296 0 92.78464 42.868736 92.78464 83.388416 0 116.860928-173.238272 145.637376-233.723904 278.35392v24.664064h276.004864v-34.648064H419.022848c79.27808-118.622208 220.217344-141.524992 220.217344-269.543424z" fill="#FFFFFF" p-id="7500"></path></svg>