<?xml version="1.0" standalone="no"?><!DOCTYPE svg PUBLIC "-//W3C//DTD SVG 1.1//EN" "http://www.w3.org/Graphics/SVG/1.1/DTD/svg11.dtd"><svg t="1522049295829" class="icon" style="" viewBox="0 0 1024 1024" version="1.1" xmlns="http://www.w3.org/2000/svg" p-id="1371" xmlns:xlink="http://www.w3.org/1999/xlink" width="200" height="200"><defs><style type="text/css"></style></defs><path d="M515.895296 16.9984C241.381376 16.9984 18.843648 239.53408 18.843648 514.048s222.537728 497.0496 497.0496 497.0496 497.0496-222.537728 497.0496-497.0496S790.407168 16.9984 515.895296 16.9984z m-8.241152 713.013248c-66.207744 0-127.045632-29.227008-145.537024-109.748224l38.770688-6.561792c14.31552 59.049984 56.664064 80.521216 106.766336 80.521216 60.839936 0 101.398528-37.576704 101.398528-91.25888 0-50.69824-38.770688-85.891072-99.608576-85.891072h-35.190784v-35.190784h35.190784c51.296256 0 86.48704-33.998848 86.48704-76.347392 0-38.770688-29.822976-75.153408-86.48704-75.153408-48.314368 0-87.083008 24.455168-97.818624 79.32928l-38.770688-5.963776c12.525568-68.593664 65.609728-108.556288 137.18528-108.556288 72.17152 0 125.853696 41.156608 125.853696 106.766336 0 56.068096-32.804864 84.10112-69.189632 96.626688 56.664064 13.717504 81.119232 53.682176 81.119232 106.170368 0 73.365504-52.49024 125.257728-140.169216 125.257728z" fill="#2E333A" p-id="1372"></path><path d="M566.704128 498.583552c36.384768-12.525568 69.189632-40.558592 69.189632-96.626688 0-65.609728-53.682176-106.766336-125.853696-106.766336-71.575552 0-124.659712 39.962624-137.18528 108.556288l38.770688 5.963776c10.735616-54.874112 49.506304-79.32928 97.818624-79.32928 56.664064 0 86.48704 36.384768 86.48704 75.153408 0 42.348544-35.190784 76.347392-86.48704 76.347392h-35.190784v35.190784h35.190784c60.837888 0 99.608576 35.190784 99.608576 85.891072 0 53.682176-40.558592 91.25888-101.398528 91.25888-50.102272 0-92.450816-21.47328-106.766336-80.521216l-38.770688 6.561792c18.489344 80.521216 79.32928 109.748224 145.537024 109.748224 87.678976 0 140.167168-51.892224 140.167168-125.257728 0.002048-52.488192-24.45312-92.450816-81.117184-106.170368z" fill="#FFFFFF" p-id="1373"></path></svg>